<svg enable-background="new 0 0 580 580" height="580" viewBox="0 0 580 580" width="580" xmlns="http://www.w3.org/2000/svg">
<path d="m373.979 195.932h-168.92c-5.561 0-10.068 4.508-10.068 10.068v168.921c0 5.561 4.507 10.068 10.068 10.068h168.92c5.561 0 10.068-4.508 10.068-10.068v-168.921c.001-5.561-4.507-10.068-10.068-10.068z" fill="rgba(26,0,0,1.0)" opacity=".5"/>
<path d="m373.979 195.932h-168.92c-5.561 0-10.068 4.508-10.068 10.068v168.921c0 5.561 4.507 10.068 10.068 10.068h168.92c5.561 0 10.068-4.508 10.068-10.068v-168.921c.001-5.561-4.507-10.068-10.068-10.068z" fill="none" stroke="rgba(90,158,158,1.0)" stroke-width="32.0"/>
</svg>
